<svg width="554" height="161" viewBox="0 0 554 161" fill="none" xmlns="http://www.w3.org/2000/svg">
<rect width="160" height="161" rx="45" fill="#A855F7"/>
<rect x="40" y="40" width="80" height="81" rx="23" fill="white"/>
<path d="M226.321 121V48.2727H255.44C260.791 48.2727 265.253 49.0658 268.828 50.652C272.403 52.2382 275.09 54.4399 276.889 57.2571C278.688 60.0507 279.588 63.2704 279.588 66.9162C279.588 69.7571 279.02 72.2547 277.884 74.4091C276.747 76.5398 275.185 78.2917 273.196 79.6648C271.231 81.0142 268.982 81.973 266.449 82.5412V83.2514C269.219 83.3698 271.811 84.151 274.226 85.5952C276.664 87.0393 278.641 89.0634 280.156 91.6676C281.671 94.2481 282.429 97.3258 282.429 100.901C282.429 104.759 281.47 108.204 279.553 111.234C277.659 114.241 274.853 116.62 271.136 118.372C267.42 120.124 262.839 121 257.393 121H226.321ZM241.697 108.429H254.233C258.518 108.429 261.643 107.612 263.608 105.979C265.573 104.321 266.555 102.12 266.555 99.3736C266.555 97.3613 266.07 95.5857 265.099 94.0469C264.129 92.508 262.744 91.3007 260.945 90.4247C259.169 89.5488 257.05 89.1108 254.588 89.1108H241.697V108.429ZM241.697 78.706H253.097C255.204 78.706 257.074 78.339 258.707 77.6051C260.365 76.8475 261.667 75.7822 262.614 74.4091C263.584 73.036 264.07 71.3906 264.07 69.473C264.07 66.8452 263.134 64.7263 261.264 63.1165C259.418 61.5066 256.79 60.7017 253.381 60.7017H241.697V78.706ZM292.15 121V66.4545H307.278V121H292.15ZM299.75 59.4233C297.501 59.4233 295.571 58.6776 293.961 57.1861C292.375 55.6709 291.582 53.8598 291.582 51.7528C291.582 49.6695 292.375 47.8821 293.961 46.3906C295.571 44.8755 297.501 44.1179 299.75 44.1179C301.999 44.1179 303.916 44.8755 305.502 46.3906C307.112 47.8821 307.917 49.6695 307.917 51.7528C307.917 53.8598 307.112 55.6709 305.502 57.1861C303.916 58.6776 301.999 59.4233 299.75 59.4233ZM334.524 89.4659V121H319.396V66.4545H333.814V76.0781H334.453C335.661 72.9058 337.685 70.3963 340.526 68.5497C343.366 66.6795 346.811 65.7443 350.859 65.7443C354.647 65.7443 357.95 66.5729 360.767 68.2301C363.584 69.8873 365.774 72.2547 367.337 75.3324C368.899 78.3864 369.68 82.0322 369.68 86.2699V121H354.553V88.9688C354.576 85.6307 353.724 83.0265 351.996 81.1562C350.268 79.2623 347.888 78.3153 344.858 78.3153C342.822 78.3153 341.023 78.7533 339.46 79.6293C337.921 80.5052 336.714 81.7836 335.838 83.4645C334.986 85.1217 334.548 87.1222 334.524 89.4659ZM416.582 97.7756V66.4545H431.71V121H417.186V111.092H416.618C415.386 114.288 413.339 116.857 410.474 118.798C407.633 120.74 404.165 121.71 400.069 121.71C396.423 121.71 393.216 120.882 390.446 119.224C387.676 117.567 385.51 115.212 383.947 112.158C382.408 109.104 381.627 105.446 381.603 101.185V66.4545H396.731V98.4858C396.755 101.705 397.619 104.25 399.324 106.121C401.028 107.991 403.313 108.926 406.177 108.926C408 108.926 409.705 108.512 411.291 107.683C412.877 106.831 414.155 105.576 415.126 103.919C416.12 102.262 416.606 100.214 416.582 97.7756ZM456.452 66.4545L466.467 85.5241L476.729 66.4545H492.248L476.445 93.7273L492.674 121H477.227L466.467 102.143L455.884 121H440.259L456.452 93.7273L440.827 66.4545H456.452ZM510.572 141.455C508.654 141.455 506.855 141.301 505.174 140.993C503.517 140.709 502.144 140.342 501.055 139.892L504.464 128.599C506.239 129.144 507.837 129.44 509.258 129.487C510.702 129.535 511.945 129.203 512.987 128.493C514.052 127.783 514.916 126.575 515.579 124.871L516.467 122.562L496.9 66.4545H512.809L524.102 106.511H524.67L536.069 66.4545H552.085L530.884 126.895C529.866 129.83 528.481 132.387 526.729 134.565C525.001 136.767 522.811 138.46 520.16 139.643C517.508 140.851 514.312 141.455 510.572 141.455Z" fill="#FBFAFF"/>
</svg>
