<svg width="327" height="98" viewBox="0 0 327 98" fill="none" xmlns="http://www.w3.org/2000/svg">
<path d="M0.321023 77V4.27273H29.4403C34.7907 4.27273 39.2533 5.06581 42.8281 6.65199C46.4029 8.23816 49.09 10.4399 50.8892 13.2571C52.6884 16.0507 53.5881 19.2704 53.5881 22.9162C53.5881 25.7571 53.0199 28.2547 51.8835 30.4091C50.7472 32.5398 49.1847 34.2917 47.196 35.6648C45.2311 37.0142 42.982 37.973 40.4489 38.5412V39.2514C43.2188 39.3698 45.8111 40.151 48.2259 41.5952C50.6643 43.0393 52.6411 45.0634 54.1562 47.6676C55.6714 50.2481 56.429 53.3258 56.429 56.9006C56.429 60.7595 55.4702 64.2041 53.5526 67.2344C51.6586 70.241 48.8532 72.6203 45.1364 74.3722C41.4195 76.1241 36.8385 77 31.3935 77H0.321023ZM15.6974 64.429H28.233C32.518 64.429 35.643 63.6122 37.608 61.9787C39.5729 60.3215 40.5554 58.1198 40.5554 55.3736C40.5554 53.3613 40.0701 51.5857 39.0994 50.0469C38.1288 48.508 36.7438 47.3007 34.9446 46.4247C33.169 45.5488 31.0502 45.1108 28.5881 45.1108H15.6974V64.429ZM15.6974 34.706H27.0966C29.2036 34.706 31.0739 34.339 32.7074 33.6051C34.3646 32.8475 35.6667 31.7822 36.6136 30.4091C37.5843 29.036 38.0696 27.3906 38.0696 25.473C38.0696 22.8452 37.1345 20.7263 35.2642 19.1165C33.4176 17.5066 30.7898 16.7017 27.3807 16.7017H15.6974V34.706ZM66.1502 77V22.4545H81.2781V77H66.1502ZM73.7496 15.4233C71.5006 15.4233 69.5711 14.6776 67.9613 13.1861C66.3751 11.6709 65.582 9.85985 65.582 7.75284C65.582 5.6695 66.3751 3.8821 67.9613 2.39062C69.5711 0.875471 71.5006 0.117894 73.7496 0.117894C75.9987 0.117894 77.9163 0.875471 79.5025 2.39062C81.1123 3.8821 81.9173 5.6695 81.9173 7.75284C81.9173 9.85985 81.1123 11.6709 79.5025 13.1861C77.9163 14.6776 75.9987 15.4233 73.7496 15.4233ZM108.524 45.4659V77H93.3963V22.4545H107.814V32.0781H108.453C109.661 28.9058 111.685 26.3963 114.526 24.5497C117.366 22.6795 120.811 21.7443 124.859 21.7443C128.647 21.7443 131.95 22.5729 134.767 24.2301C137.584 25.8873 139.774 28.2547 141.337 31.3324C142.899 34.3864 143.68 38.0322 143.68 42.2699V77H128.553V44.9688C128.576 41.6307 127.724 39.0265 125.996 37.1562C124.268 35.2623 121.888 34.3153 118.858 34.3153C116.822 34.3153 115.023 34.7533 113.46 35.6293C111.921 36.5052 110.714 37.7836 109.838 39.4645C108.986 41.1217 108.548 43.1222 108.524 45.4659ZM190.582 53.7756V22.4545H205.71V77H191.186V67.0923H190.618C189.386 70.2884 187.339 72.857 184.474 74.7983C181.633 76.7396 178.165 77.7102 174.069 77.7102C170.423 77.7102 167.216 76.8816 164.446 75.2244C161.676 73.5672 159.51 71.2116 157.947 68.1577C156.408 65.1037 155.627 61.446 155.603 57.1847V22.4545H170.731V54.4858C170.755 57.7055 171.619 60.2505 173.324 62.1207C175.028 63.991 177.313 64.9261 180.177 64.9261C182 64.9261 183.705 64.5118 185.291 63.6832C186.877 62.831 188.155 61.5762 189.126 59.919C190.12 58.2618 190.606 56.214 190.582 53.7756ZM230.452 22.4545L240.467 41.5241L250.729 22.4545H266.248L250.445 49.7273L266.674 77H251.227L240.467 58.1435L229.884 77H214.259L230.452 49.7273L214.827 22.4545H230.452ZM284.572 97.4545C282.654 97.4545 280.855 97.3007 279.174 96.9929C277.517 96.7088 276.144 96.3419 275.055 95.892L278.464 84.5994C280.239 85.1439 281.837 85.4399 283.258 85.4872C284.702 85.5346 285.945 85.2031 286.987 84.4929C288.052 83.7827 288.916 82.5753 289.579 80.8707L290.467 78.5625L270.9 22.4545H286.809L298.102 62.5114H298.67L310.069 22.4545H326.085L304.884 82.8949C303.866 85.8305 302.481 88.3873 300.729 90.5653C299.001 92.767 296.811 94.4598 294.16 95.6435C291.508 96.8509 288.312 97.4545 284.572 97.4545Z" fill="#FBFAFF"/>
</svg>
