<svg width="1600" height="732" viewBox="0 0 1600 732" fill="none" xmlns="http://www.w3.org/2000/svg">
<g clip-path="url(#clip0_1_2)">
<mask id="mask0_1_2" style="mask-type:luminance" maskUnits="userSpaceOnUse" x="0" y="0" width="1600" height="732">
<path d="M1550 0H50C22.3858 0 0 22.3858 0 50V682C0 709.614 22.3858 732 50 732H1550C1577.61 732 1600 709.614 1600 682V50C1600 22.3858 1577.61 0 1550 0Z" fill="white"/>
</mask>
<g mask="url(#mask0_1_2)">
<path d="M1550 0H50C22.3858 0 0 22.3858 0 50V682C0 709.614 22.3858 732 50 732H1550C1577.61 732 1600 709.614 1600 682V50C1600 22.3858 1577.61 0 1550 0Z" fill="#03000A"/>
<g opacity="0.35" filter="url(#filter0_f_1_2)">
<path d="M1473.81 468.853C1642.12 468.853 1778.57 357.79 1778.57 220.786C1778.57 83.7827 1642.12 -27.2805 1473.81 -27.2805C1305.49 -27.2805 1169.05 83.7827 1169.05 220.786C1169.05 357.79 1305.49 468.853 1473.81 468.853Z" fill="#F472B6" fill-opacity="0.4"/>
</g>
<g opacity="0.35" filter="url(#filter1_f_1_2)">
<path d="M325.595 413.444C493.911 413.444 630.357 302.381 630.357 165.378C630.357 28.3743 493.911 -82.689 325.595 -82.689C157.28 -82.689 20.8333 28.3743 20.8333 165.378C20.8333 302.381 157.28 413.444 325.595 413.444Z" fill="#4200FF" fill-opacity="0.3"/>
</g>
<g opacity="0.35" filter="url(#filter2_f_1_2)">
<path d="M1104.76 1009.21C1273.08 1009.21 1409.52 898.148 1409.52 761.144C1409.52 624.141 1273.08 513.078 1104.76 513.078C936.447 513.078 800 624.141 800 761.144C800 898.148 936.447 1009.21 1104.76 1009.21Z" fill="#F472B6" fill-opacity="0.22"/>
</g>
</g>
<rect x="523" y="286" width="160" height="161" rx="45" fill="#A855F7"/>
<rect x="563" y="326" width="80" height="81" rx="23" fill="white"/>
<path d="M749.321 407V334.273H778.44C783.791 334.273 788.253 335.066 791.828 336.652C795.403 338.238 798.09 340.44 799.889 343.257C801.688 346.051 802.588 349.27 802.588 352.916C802.588 355.757 802.02 358.255 800.884 360.409C799.747 362.54 798.185 364.292 796.196 365.665C794.231 367.014 791.982 367.973 789.449 368.541V369.251C792.219 369.37 794.811 370.151 797.226 371.595C799.664 373.039 801.641 375.063 803.156 377.668C804.671 380.248 805.429 383.326 805.429 386.901C805.429 390.759 804.47 394.204 802.553 397.234C800.659 400.241 797.853 402.62 794.136 404.372C790.42 406.124 785.839 407 780.393 407H749.321ZM764.697 394.429H777.233C781.518 394.429 784.643 393.612 786.608 391.979C788.573 390.321 789.555 388.12 789.555 385.374C789.555 383.361 789.07 381.586 788.099 380.047C787.129 378.508 785.744 377.301 783.945 376.425C782.169 375.549 780.05 375.111 777.588 375.111H764.697V394.429ZM764.697 364.706H776.097C778.204 364.706 780.074 364.339 781.707 363.605C783.365 362.848 784.667 361.782 785.614 360.409C786.584 359.036 787.07 357.391 787.07 355.473C787.07 352.845 786.134 350.726 784.264 349.116C782.418 347.507 779.79 346.702 776.381 346.702H764.697V364.706ZM815.15 407V352.455H830.278V407H815.15ZM822.75 345.423C820.501 345.423 818.571 344.678 816.961 343.186C815.375 341.671 814.582 339.86 814.582 337.753C814.582 335.67 815.375 333.882 816.961 332.391C818.571 330.875 820.501 330.118 822.75 330.118C824.999 330.118 826.916 330.875 828.502 332.391C830.112 333.882 830.917 335.67 830.917 337.753C830.917 339.86 830.112 341.671 828.502 343.186C826.916 344.678 824.999 345.423 822.75 345.423ZM857.524 375.466V407H842.396V352.455H856.814V362.078H857.453C858.661 358.906 860.685 356.396 863.526 354.55C866.366 352.679 869.811 351.744 873.859 351.744C877.647 351.744 880.95 352.573 883.767 354.23C886.584 355.887 888.774 358.255 890.337 361.332C891.899 364.386 892.68 368.032 892.68 372.27V407H877.553V374.969C877.576 371.631 876.724 369.027 874.996 367.156C873.268 365.262 870.888 364.315 867.858 364.315C865.822 364.315 864.023 364.753 862.46 365.629C860.921 366.505 859.714 367.784 858.838 369.464C857.986 371.122 857.548 373.122 857.524 375.466ZM939.582 383.776V352.455H954.71V407H940.186V397.092H939.618C938.386 400.288 936.339 402.857 933.474 404.798C930.633 406.74 927.165 407.71 923.069 407.71C919.423 407.71 916.216 406.882 913.446 405.224C910.676 403.567 908.51 401.212 906.947 398.158C905.408 395.104 904.627 391.446 904.603 387.185V352.455H919.731V384.486C919.755 387.705 920.619 390.25 922.324 392.121C924.028 393.991 926.313 394.926 929.177 394.926C931 394.926 932.705 394.512 934.291 393.683C935.877 392.831 937.155 391.576 938.126 389.919C939.12 388.262 939.606 386.214 939.582 383.776ZM979.452 352.455L989.467 371.524L999.729 352.455H1015.25L999.445 379.727L1015.67 407H1000.23L989.467 388.143L978.884 407H963.259L979.452 379.727L963.827 352.455H979.452ZM1033.57 427.455C1031.65 427.455 1029.85 427.301 1028.17 426.993C1026.52 426.709 1025.14 426.342 1024.05 425.892L1027.46 414.599C1029.24 415.144 1030.84 415.44 1032.26 415.487C1033.7 415.535 1034.94 415.203 1035.99 414.493C1037.05 413.783 1037.92 412.575 1038.58 410.871L1039.47 408.562L1019.9 352.455H1035.81L1047.1 392.511H1047.67L1059.07 352.455H1075.08L1053.88 412.895C1052.87 415.83 1051.48 418.387 1049.73 420.565C1048 422.767 1045.81 424.46 1043.16 425.643C1040.51 426.851 1037.31 427.455 1033.57 427.455Z" fill="white"/>
</g>
<defs>
<filter id="filter0_f_1_2" x="571.65" y="-624.681" width="1804.32" height="1690.93" filterUnits="userSpaceOnUse" color-interpolation-filters="sRGB">
<feFlood flood-opacity="0" result="BackgroundImageFix"/>
<feBlend mode="normal" in="SourceGraphic" in2="BackgroundImageFix" result="shape"/>
<feGaussianBlur stdDeviation="298.7" result="effect1_foregroundBlur_1_2"/>
</filter>
<filter id="filter1_f_1_2" x="-514.967" y="-618.489" width="1681.12" height="1567.73" filterUnits="userSpaceOnUse" color-interpolation-filters="sRGB">
<feFlood flood-opacity="0" result="BackgroundImageFix"/>
<feBlend mode="normal" in="SourceGraphic" in2="BackgroundImageFix" result="shape"/>
<feGaussianBlur stdDeviation="267.9" result="effect1_foregroundBlur_1_2"/>
</filter>
<filter id="filter2_f_1_2" x="268.5" y="-18.422" width="1672.52" height="1559.13" filterUnits="userSpaceOnUse" color-interpolation-filters="sRGB">
<feFlood flood-opacity="0" result="BackgroundImageFix"/>
<feBlend mode="normal" in="SourceGraphic" in2="BackgroundImageFix" result="shape"/>
<feGaussianBlur stdDeviation="265.75" result="effect1_foregroundBlur_1_2"/>
</filter>
<clipPath id="clip0_1_2">
<rect width="1600" height="732" fill="white"/>
</clipPath>
</defs>
</svg>
